<svg width="160" height="57" viewBox="0 0 160 57" fill="none" xmlns="http://www.w3.org/2000/svg">
<g filter="url(#filter0_di_1_11)">
<circle cx="140.195" cy="18.5027" r="12.8055" fill="white"/>
</g>
<rect x="137.411" y="11.2649" width="5.5676" height="14.4758" rx="0.281186" fill="black"/>
<rect x="147.432" y="15.7189" width="5.5676" height="14.4758" rx="0.281186" transform="rotate(90 147.432 15.7189)" fill="black"/>
<path d="M18.8748 29.9332V49.3026H13.4899V41.5273H6.92351V49.3026H1.53856V29.9332H6.92351V37.2139H13.4899V29.9332H18.8748ZM36.6826 41.4174C36.6826 41.8387 36.6552 42.26 36.6002 42.6813H26.4073C26.4622 43.5238 26.6912 44.1557 27.0941 44.577C27.5154 44.9799 28.0466 45.1814 28.6876 45.1814C29.5851 45.1814 30.2262 44.7785 30.6108 43.9725H36.3529C36.1148 45.0349 35.6478 45.9873 34.9518 46.8299C34.2741 47.6541 33.4132 48.3043 32.3692 48.7805C31.3252 49.2568 30.1712 49.4949 28.9074 49.4949C27.3872 49.4949 26.0318 49.1743 24.8412 48.5333C23.669 47.8922 22.744 46.9764 22.0663 45.7858C21.4069 44.5953 21.0773 43.1941 21.0773 41.5823C21.0773 39.9705 21.4069 38.5784 22.0663 37.4062C22.7257 36.2156 23.6415 35.2998 24.8138 34.6588C26.0043 34.0177 27.3689 33.6972 28.9074 33.6972C30.4277 33.6972 31.7739 34.0086 32.9461 34.6313C34.1184 35.2541 35.0342 36.1515 35.6936 37.3238C36.3529 38.4777 36.6826 39.8423 36.6826 41.4174ZM31.1878 40.0712C31.1878 39.4118 30.968 38.899 30.5284 38.5326C30.0888 38.148 29.5393 37.9557 28.8799 37.9557C28.2206 37.9557 27.6802 38.1388 27.259 38.5052C26.8377 38.8532 26.5629 39.3752 26.4347 40.0712H31.1878ZM44.2713 28.9716V49.3026H38.8864V28.9716H44.2713ZM52.7229 28.9716V49.3026H47.3379V28.9716H52.7229ZM63.0976 49.4949C60.8447 49.4949 58.9948 48.9637 57.5478 47.9014C56.1008 46.8207 55.3224 45.2822 55.2125 43.2857H60.9546C61.0096 43.9634 61.2111 44.4579 61.5591 44.7693C61.9071 45.0807 62.3558 45.2364 62.9053 45.2364C63.3998 45.2364 63.8028 45.1173 64.1142 44.8792C64.4439 44.6228 64.6087 44.2748 64.6087 43.8352C64.6087 43.2674 64.3431 42.8278 63.812 42.5164C63.2808 42.205 62.4199 41.857 61.2294 41.4724C59.9656 41.0511 58.9399 40.6482 58.1523 40.2635C57.383 39.8606 56.7053 39.2836 56.1192 38.5326C55.5514 37.7634 55.2675 36.7651 55.2675 35.538C55.2675 34.2925 55.5788 33.2301 56.2016 32.3509C56.8243 31.4534 57.6852 30.7757 58.7842 30.3178C59.8831 29.8599 61.1286 29.631 62.5207 29.631C64.7735 29.631 66.5685 30.1622 67.9056 31.2245C69.261 32.2685 69.9845 33.743 70.0761 35.6478H64.2241C64.2057 35.0617 64.0226 34.6221 63.6746 34.3291C63.3449 34.036 62.9145 33.8895 62.3833 33.8895C61.9803 33.8895 61.6506 34.0086 61.3942 34.2467C61.1378 34.4848 61.0096 34.8236 61.0096 35.2632C61.0096 35.6295 61.1469 35.9501 61.4217 36.2248C61.7147 36.4812 62.0719 36.7102 62.4932 36.9117C62.9145 37.0948 63.5372 37.3329 64.3614 37.626C65.5886 38.0473 66.596 38.4685 67.3836 38.8898C68.1895 39.2928 68.8764 39.8697 69.4442 40.6207C70.0303 41.3533 70.3233 42.2875 70.3233 43.4231C70.3233 44.577 70.0303 45.6118 69.4442 46.5277C68.8764 47.4435 68.043 48.1669 66.944 48.6981C65.8634 49.2293 64.5812 49.4949 63.0976 49.4949ZM87.5529 41.4174C87.5529 41.8387 87.5254 42.26 87.4705 42.6813H77.2775C77.3325 43.5238 77.5614 44.1557 77.9644 44.577C78.3857 44.9799 78.9168 45.1814 79.5579 45.1814C80.4554 45.1814 81.0965 44.7785 81.4811 43.9725H87.2232C86.9851 45.0349 86.5181 45.9873 85.822 46.8299C85.1443 47.6541 84.2835 48.3043 83.2395 48.7805C82.1954 49.2568 81.0415 49.4949 79.7777 49.4949C78.2575 49.4949 76.9021 49.1743 75.7115 48.5333C74.5393 47.8922 73.6143 46.9764 72.9366 45.7858C72.2772 44.5953 71.9475 43.1941 71.9475 41.5823C71.9475 39.9705 72.2772 38.5784 72.9366 37.4062C73.596 36.2156 74.5118 35.2998 75.684 34.6588C76.8746 34.0177 78.2391 33.6972 79.7777 33.6972C81.2979 33.6972 82.6442 34.0086 83.8164 34.6313C84.9887 35.2541 85.9045 36.1515 86.5638 37.3238C87.2232 38.4777 87.5529 39.8423 87.5529 41.4174ZM82.0581 40.0712C82.0581 39.4118 81.8383 38.899 81.3987 38.5326C80.9591 38.148 80.4096 37.9557 79.7502 37.9557C79.0908 37.9557 78.5505 38.1388 78.1293 38.5052C77.708 38.8532 77.4332 39.3752 77.305 40.0712H82.0581ZM88.8775 41.5823C88.8775 39.9888 89.1614 38.5968 89.7292 37.4062C90.3153 36.2156 91.1029 35.2998 92.092 34.6588C93.0994 34.0177 94.2166 33.6972 95.4438 33.6972C96.5062 33.6972 97.422 33.9078 98.1913 34.3291C98.9605 34.7504 99.5558 35.3182 99.9771 36.0325V33.8895H105.362V49.3026H99.9771V47.1596C99.5558 47.8739 98.9514 48.4417 98.1638 48.863C97.3945 49.2842 96.4879 49.4949 95.4438 49.4949C94.2166 49.4949 93.0994 49.1743 92.092 48.5333C91.1029 47.8922 90.3153 46.9764 89.7292 45.7858C89.1614 44.577 88.8775 43.1758 88.8775 41.5823ZM99.9771 41.5823C99.9771 40.5932 99.7023 39.8148 99.1529 39.247C98.6217 38.6792 97.9623 38.3953 97.1747 38.3953C96.3688 38.3953 95.7003 38.6792 95.1691 39.247C94.6379 39.7965 94.3723 40.5749 94.3723 41.5823C94.3723 42.5714 94.6379 43.359 95.1691 43.9451C95.7003 44.5129 96.3688 44.7968 97.1747 44.7968C97.9623 44.7968 98.6217 44.5129 99.1529 43.9451C99.7023 43.3773 99.9771 42.5897 99.9771 41.5823ZM118.074 49.3026L113.816 42.9835V49.3026H108.431V28.9716H113.816V39.9338L118.074 33.8895H124.53L118.459 41.6372L124.64 49.3026H118.074Z" fill="white"/>
<defs>
<filter id="filter0_di_1_11" x="120.562" y="0.307795" width="39.2641" height="39.2641" filterUnits="userSpaceOnUse" color-interpolation-filters="sRGB">
<feFlood flood-opacity="0" result="BackgroundImageFix"/>
<feColorMatrix in="SourceAlpha" type="matrix" values="0 0 0 0 0 0 0 0 0 0 0 0 0 0 0 0 0 0 127 0" result="hardAlpha"/>
<feOffset dy="1.43717"/>
<feGaussianBlur stdDeviation="3.41328"/>
<feComposite in2="hardAlpha" operator="out"/>
<feColorMatrix type="matrix" values="0 0 0 0 0.0862745 0 0 0 0 0.470588 0 0 0 0 0.94902 0 0 0 0.2 0"/>
<feBlend mode="normal" in2="BackgroundImageFix" result="effect1_dropShadow_1_11"/>
<feBlend mode="normal" in="SourceGraphic" in2="effect1_dropShadow_1_11" result="shape"/>
<feColorMatrix in="SourceAlpha" type="matrix" values="0 0 0 0 0 0 0 0 0 0 0 0 0 0 0 0 0 0 127 0" result="hardAlpha"/>
<feOffset dy="1.43717"/>
<feGaussianBlur stdDeviation="0.718586"/>
<feComposite in2="hardAlpha" operator="arithmetic" k2="-1" k3="1"/>
<feColorMatrix type="matrix" values="0 0 0 0 0 0 0 0 0 0 0 0 0 0 0 0 0 0 0.12 0"/>
<feBlend mode="normal" in2="shape" result="effect2_innerShadow_1_11"/>
</filter>
</defs>
</svg>
